<svg xmlns="http://www.w3.org/2000/svg" width="1200" height="760" viewBox="0 0 1200 760" fill="none">
  <defs>
    <linearGradient id="bg" x1="0" y1="0" x2="1200" y2="760" gradientUnits="userSpaceOnUse">
      <stop stop-color="#0B0E13"/>
      <stop offset="1" stop-color="#101827"/>
    </linearGradient>
    <linearGradient id="panel" x1="0" y1="0" x2="0" y2="1">
      <stop stop-color="#171A22"/>
      <stop offset="1" stop-color="#10131A"/>
    </linearGradient>
    <linearGradient id="core" x1="0" y1="0" x2="1" y2="1">
      <stop stop-color="#1E3A8A"/>
      <stop offset="1" stop-color="#0F766E"/>
    </linearGradient>
    <filter id="shadow" x="-20%" y="-20%" width="140%" height="140%">
      <feDropShadow dx="0" dy="16" stdDeviation="20" flood-color="#000000" flood-opacity="0.35"/>
    </filter>
    <marker id="arrow" markerWidth="10" markerHeight="10" refX="8" refY="5" orient="auto">
      <path d="M0 0L10 5L0 10V0Z" fill="#60A5FA"/>
    </marker>
    <style>
      .title{font:700 38px Inter,Arial,sans-serif;fill:#F8FAFC}
      .subtitle{font:500 18px Inter,Arial,sans-serif;fill:#94A3B8}
      .kicker{font:600 13px Inter,Arial,sans-serif;fill:#93C5FD;letter-spacing:1.8px;text-transform:uppercase}
      .card-title{font:700 24px Inter,Arial,sans-serif;fill:#F8FAFC}
      .card-copy{font:500 17px Inter,Arial,sans-serif;fill:#CBD5E1}
      .small-title{font:700 19px Inter,Arial,sans-serif;fill:#F8FAFC}
      .small-copy{font:500 15px Inter,Arial,sans-serif;fill:#94A3B8}
      .mono{font:600 14px 'JetBrains Mono',monospace;fill:#BFDBFE}
    </style>
  </defs>

  <rect width="1200" height="760" rx="28" fill="url(#bg)"/>
  <circle cx="1030" cy="120" r="180" fill="#1D4ED8" fill-opacity="0.12"/>
  <circle cx="140" cy="660" r="220" fill="#0F766E" fill-opacity="0.10"/>

  <text x="72" y="78" class="kicker">Overview</text>
  <text x="72" y="126" class="title">From isolated skills to the AI PM OS</text>
  <text x="72" y="158" class="subtitle">A planner, durable context, and parallel workspaces turn helpful tools into an operating model.</text>

  <g filter="url(#shadow)">
    <rect x="72" y="214" width="252" height="92" rx="18" fill="url(#panel)" stroke="#2A3342"/>
    <text x="102" y="252" class="small-title">Inbox triage</text>
    <text x="102" y="280" class="small-copy">Slack, Gmail, comments</text>

    <rect x="72" y="326" width="252" height="92" rx="18" fill="url(#panel)" stroke="#2A3342"/>
    <text x="102" y="364" class="small-title">PRD writing</text>
    <text x="102" y="392" class="small-copy">Notes, research, synthesis</text>

    <rect x="72" y="438" width="252" height="92" rx="18" fill="url(#panel)" stroke="#2A3342"/>
    <text x="102" y="476" class="small-title">Research</text>
    <text x="102" y="504" class="small-copy">Customer, market, docs</text>

    <rect x="72" y="550" width="252" height="92" rx="18" fill="url(#panel)" stroke="#2A3342"/>
    <text x="102" y="588" class="small-title">To-dos and follow-up</text>
    <text x="102" y="616" class="small-copy">Capture, queue, reconcile</text>
  </g>

  <g filter="url(#shadow)">
    <rect x="414" y="254" width="360" height="188" rx="28" fill="url(#core)"/>
    <text x="450" y="304" class="kicker" fill="#DBEAFE">Planning layer</text>
    <text x="450" y="348" class="card-title">Chief of Staff</text>
    <text x="450" y="384" class="card-copy">Reads notes, routines, and open workstreams.</text>
    <text x="450" y="414" class="card-copy">Decides what deserves attention now.</text>
    <text x="450" y="454" class="mono">start-day -> today-plan.json</text>
  </g>

  <g filter="url(#shadow)">
    <rect x="840" y="214" width="290" height="118" rx="18" fill="url(#panel)" stroke="#2A3342"/>
    <text x="870" y="258" class="small-title">CMUX workspaces</text>
    <text x="870" y="286" class="small-copy">command-center, meetings,</text>
    <text x="870" y="308" class="small-copy">comms-triage, checkout-ux</text>

    <rect x="840" y="352" width="290" height="118" rx="18" fill="url(#panel)" stroke="#2A3342"/>
    <text x="870" y="396" class="small-title">Durable context</text>
    <text x="870" y="424" class="small-copy">Each thread resumes from</text>
    <text x="870" y="446" class="mono">CONTEXT.md</text>

    <rect x="840" y="490" width="290" height="152" rx="18" fill="url(#panel)" stroke="#2A3342"/>
    <text x="870" y="534" class="small-title">Derived state</text>
    <text x="870" y="562" class="mono">queue.json</text>
    <text x="870" y="590" class="mono">now.json</text>
    <text x="870" y="618" class="small-copy">A quick view of what is live</text>
    <text x="870" y="640" class="small-copy">and what should happen next.</text>
  </g>

  <g filter="url(#shadow)">
    <rect x="414" y="514" width="160" height="128" rx="18" fill="url(#panel)" stroke="#2A3342"/>
    <text x="444" y="558" class="small-title">Workstreams</text>
    <text x="444" y="586" class="small-copy">Finite threads</text>
    <text x="444" y="608" class="small-copy">with outcomes.</text>

    <rect x="594" y="514" width="160" height="128" rx="18" fill="url(#panel)" stroke="#2A3342"/>
    <text x="624" y="558" class="small-title">Routines</text>
    <text x="624" y="586" class="small-copy">Recurring loops</text>
    <text x="624" y="608" class="small-copy">that never end.</text>
  </g>

  <path d="M324 260C356 260 370 260 404 310" stroke="#60A5FA" stroke-width="3" marker-end="url(#arrow)"/>
  <path d="M324 372C364 372 382 372 404 350" stroke="#60A5FA" stroke-width="3" marker-end="url(#arrow)"/>
  <path d="M324 484C364 484 386 454 404 390" stroke="#60A5FA" stroke-width="3" marker-end="url(#arrow)"/>
  <path d="M324 596C370 596 386 530 404 426" stroke="#60A5FA" stroke-width="3" marker-end="url(#arrow)"/>

  <path d="M774 348C804 348 820 300 840 274" stroke="#60A5FA" stroke-width="3" marker-end="url(#arrow)"/>
  <path d="M774 348C804 348 820 394 840 410" stroke="#60A5FA" stroke-width="3" marker-end="url(#arrow)"/>
  <path d="M774 348C810 348 820 534 840 566" stroke="#60A5FA" stroke-width="3" marker-end="url(#arrow)"/>
  <path d="M594 442C594 468 494 490 494 514" stroke="#34D399" stroke-width="3" marker-end="url(#arrow)"/>
  <path d="M594 442C594 468 674 490 674 514" stroke="#34D399" stroke-width="3" marker-end="url(#arrow)"/>
</svg>
