<svg xmlns="http://www.w3.org/2000/svg" width="1280" height="760" viewBox="0 0 1280 760" fill="none">
  <defs>
    <linearGradient id="bg" x1="0" y1="0" x2="1280" y2="760" gradientUnits="userSpaceOnUse">
      <stop stop-color="#0A0F16"/>
      <stop offset="1" stop-color="#101827"/>
    </linearGradient>
    <linearGradient id="box" x1="0" y1="0" x2="0" y2="1">
      <stop stop-color="#171F2B"/>
      <stop offset="1" stop-color="#111827"/>
    </linearGradient>
    <linearGradient id="accent" x1="0" y1="0" x2="1" y2="1">
      <stop stop-color="#2563EB"/>
      <stop offset="1" stop-color="#14B8A6"/>
    </linearGradient>
    <filter id="shadow" x="-20%" y="-20%" width="140%" height="140%">
      <feDropShadow dx="0" dy="14" stdDeviation="18" flood-color="#000000" flood-opacity="0.35"/>
    </filter>
    <marker id="arrow" markerWidth="10" markerHeight="10" refX="8" refY="5" orient="auto">
      <path d="M0 0L10 5L0 10V0Z" fill="#60A5FA"/>
    </marker>
    <style>
      .title{font:700 38px Inter,Arial,sans-serif;fill:#F8FAFC}
      .subtitle{font:500 18px Inter,Arial,sans-serif;fill:#94A3B8}
      .kicker{font:600 13px Inter,Arial,sans-serif;fill:#93C5FD;letter-spacing:1.8px;text-transform:uppercase}
      .step{font:700 22px Inter,Arial,sans-serif;fill:#F8FAFC}
      .copy{font:500 16px Inter,Arial,sans-serif;fill:#CBD5E1}
      .mono{font:600 15px 'JetBrains Mono',monospace;fill:#BFDBFE}
      .mini{font:500 14px Inter,Arial,sans-serif;fill:#94A3B8}
    </style>
  </defs>

  <rect width="1280" height="760" rx="28" fill="url(#bg)"/>
  <circle cx="1180" cy="88" r="180" fill="#1D4ED8" fill-opacity="0.10"/>
  <circle cx="160" cy="700" r="220" fill="#0F766E" fill-opacity="0.09"/>

  <text x="72" y="78" class="kicker">Workflow</text>
  <text x="72" y="126" class="title">How the AI PM OS starts the day</text>
  <text x="72" y="158" class="subtitle">The public flow is simple on purpose: plan first, derive state, then open the right sessions.</text>

  <g filter="url(#shadow)">
    <rect x="76" y="236" width="178" height="118" rx="22" fill="url(#accent)"/>
    <text x="108" y="284" class="kicker" fill="#DBEAFE">Entry</text>
    <text x="108" y="322" class="step">start-day</text>
    <text x="108" y="348" class="mini">one command</text>

    <rect x="304" y="236" width="210" height="118" rx="22" fill="url(#box)" stroke="#2A3342"/>
    <text x="336" y="284" class="kicker">Planner</text>
    <text x="336" y="320" class="step">command-center</text>
    <text x="336" y="346" class="copy">Chief of Staff reviews notes, routines, and workstreams.</text>

    <rect x="564" y="236" width="220" height="118" rx="22" fill="url(#box)" stroke="#2A3342"/>
    <text x="596" y="284" class="kicker">Plan file</text>
    <text x="596" y="320" class="mono">today-plan.json</text>
    <text x="596" y="346" class="copy">Selected workstreams, prompts, and a ranked day.</text>

    <rect x="834" y="236" width="172" height="118" rx="22" fill="url(#box)" stroke="#2A3342"/>
    <text x="866" y="284" class="kicker">State</text>
    <text x="866" y="320" class="mono">queue.json</text>
    <text x="866" y="344" class="mono">now.json</text>

    <rect x="1056" y="236" width="148" height="118" rx="22" fill="url(#box)" stroke="#2A3342"/>
    <text x="1088" y="284" class="kicker">Surface</text>
    <text x="1088" y="320" class="step">cmux</text>
    <text x="1088" y="346" class="mini">parallel tabs</text>
  </g>

  <path d="M254 295H304" stroke="#60A5FA" stroke-width="4" marker-end="url(#arrow)"/>
  <path d="M514 295H564" stroke="#60A5FA" stroke-width="4" marker-end="url(#arrow)"/>
  <path d="M784 295H834" stroke="#60A5FA" stroke-width="4" marker-end="url(#arrow)"/>
  <path d="M1006 295H1056" stroke="#60A5FA" stroke-width="4" marker-end="url(#arrow)"/>

  <text x="76" y="444" class="kicker">Opened from the plan</text>
  <g filter="url(#shadow)">
    <rect x="76" y="468" width="356" height="188" rx="22" fill="url(#box)" stroke="#2A3342"/>
    <text x="108" y="514" class="step">checkout-ux</text>
    <text x="108" y="548" class="copy">Resume the product thread from</text>
    <text x="108" y="574" class="mono">workstreams/checkout-ux/CONTEXT.md</text>
    <text x="108" y="614" class="mini">Prompt: refine the next UX decision and prep review questions</text>

    <rect x="462" y="468" width="356" height="188" rx="22" fill="url(#box)" stroke="#2A3342"/>
    <text x="494" y="514" class="step">meetings</text>
    <text x="494" y="548" class="copy">Prep the next meeting loop from</text>
    <text x="494" y="574" class="mono">routines/meetings/CONTEXT.md</text>
    <text x="494" y="614" class="mini">Prompt: build the brief, gather open questions, capture follow-up</text>

    <rect x="848" y="468" width="356" height="188" rx="22" fill="url(#box)" stroke="#2A3342"/>
    <text x="880" y="514" class="step">comms-triage</text>
    <text x="880" y="548" class="copy">Run the recurring inbox loop from</text>
    <text x="880" y="574" class="mono">routines/comms-triage/CONTEXT.md</text>
    <text x="880" y="614" class="mini">Prompt: triage messages, draft replies, keep the queue current</text>
  </g>

  <path d="M676 354V420" stroke="#34D399" stroke-width="4" marker-end="url(#arrow)"/>
  <path d="M1128 354V420" stroke="#34D399" stroke-width="4" marker-end="url(#arrow)"/>
  <path d="M920 354C920 394 660 404 400 454" stroke="#34D399" stroke-width="4" marker-end="url(#arrow)"/>
</svg>
