<svg xmlns="http://www.w3.org/2000/svg" width="1280" height="820" viewBox="0 0 1280 820" fill="none">
  <defs>
    <linearGradient id="bg" x1="0" y1="0" x2="1280" y2="820" gradientUnits="userSpaceOnUse">
      <stop stop-color="#0A0D12"/>
      <stop offset="1" stop-color="#121826"/>
    </linearGradient>
    <linearGradient id="shell" x1="0" y1="0" x2="0" y2="1">
      <stop stop-color="#121722"/>
      <stop offset="1" stop-color="#0A0D12"/>
    </linearGradient>
    <filter id="shadow" x="-20%" y="-20%" width="140%" height="140%">
      <feDropShadow dx="0" dy="18" stdDeviation="24" flood-color="#000000" flood-opacity="0.38"/>
    </filter>
    <style>
      .title{font:700 42px Inter,Arial,sans-serif;fill:#F8FAFC}
      .subtitle{font:500 22px Inter,Arial,sans-serif;fill:#94A3B8}
      .kicker{font:600 15px Inter,Arial,sans-serif;fill:#93C5FD;letter-spacing:1.8px;text-transform:uppercase}
      .tab{font:700 22px Inter,Arial,sans-serif;fill:#F8FAFC}
      .copy{font:500 20px Inter,Arial,sans-serif;fill:#DBE4EF}
      .mini{font:500 18px Inter,Arial,sans-serif;fill:#AAB7C9}
      .mono{font:600 18px 'JetBrains Mono',monospace;fill:#BFDBFE}
      .terminal{font:500 18px 'JetBrains Mono',monospace;fill:#D1D5DB}
    </style>
  </defs>

  <rect width="1280" height="820" rx="28" fill="url(#bg)"/>
  <circle cx="1160" cy="120" r="180" fill="#1D4ED8" fill-opacity="0.12"/>
  <circle cx="140" cy="720" r="220" fill="#0F766E" fill-opacity="0.10"/>

  <text x="72" y="78" class="kicker">Setup</text>
  <text x="72" y="126" class="title">A CMUX surface when the AI PM OS is live</text>
  <text x="72" y="160" class="subtitle">A command-center tab at the top, active workstreams on the left, and live state on the right.</text>

  <g filter="url(#shadow)">
    <rect x="72" y="214" width="1136" height="550" rx="24" fill="url(#shell)" stroke="#223043"/>
    <rect x="72" y="214" width="1136" height="56" rx="24" fill="#141B26"/>
    <rect x="72" y="246" width="1136" height="518" rx="0" fill="url(#shell)"/>

    <circle cx="108" cy="242" r="7" fill="#FB7185"/>
    <circle cx="134" cy="242" r="7" fill="#FBBF24"/>
    <circle cx="160" cy="242" r="7" fill="#34D399"/>
    <text x="556" y="248" class="mono">cmux • ai-pm-os</text>
    <text x="1060" y="248" class="mono">Mon 09:14</text>

    <rect x="72" y="270" width="252" height="494" fill="#0E131A"/>
    <rect x="324" y="270" width="884" height="494" fill="#090D14"/>
    <line x1="324" y1="270" x2="324" y2="764" stroke="#1E293B"/>

    <text x="102" y="308" class="kicker">Active workspaces</text>

    <rect x="102" y="334" width="192" height="102" rx="16" fill="#1D335B" stroke="#5B8DFF"/>
    <text x="124" y="372" class="tab">command-center</text>
    <text x="124" y="404" class="mini">Review the queue and</text>
    <text x="124" y="430" class="mini">decide what opens next.</text>

    <rect x="102" y="456" width="192" height="96" rx="16" fill="#151C25" stroke="#293241"/>
    <text x="124" y="492" class="tab">meetings</text>
    <text x="124" y="522" class="mini">Prep the next brief and</text>
    <text x="124" y="548" class="mini">capture follow-up.</text>

    <rect x="102" y="572" width="192" height="96" rx="16" fill="#151C25" stroke="#293241"/>
    <text x="124" y="608" class="tab">checkout-ux</text>
    <text x="124" y="638" class="mini">Refine flows and prep</text>
    <text x="124" y="664" class="mini">the next design review.</text>

    <text x="356" y="308" class="kicker">Workspace: command-center</text>
    <rect x="356" y="332" width="812" height="66" rx="16" fill="#111827" stroke="#273244"/>
    <text x="384" y="374" class="mono">source: today-plan.json -> queue.json / now.json</text>

    <rect x="356" y="420" width="470" height="306" rx="18" fill="#101722" stroke="#273244"/>
    <text x="384" y="456" class="kicker">Live terminal</text>
    <text x="384" y="500" class="terminal" fill="#34D399">$ start-day</text>
    <text x="384" y="544" class="terminal" fill="#6EE7B7">cmux ready • chief-of-staff prompt sent</text>
    <text x="384" y="588" class="terminal">Chief of Staff: reviewing workstreams</text>
    <text x="384" y="632" class="terminal" fill="#93C5FD">State: queue.json and now.json refreshed</text>
    <text x="384" y="676" class="terminal">Launching: checkout-ux, comms-triage, meetings</text>

    <rect x="850" y="420" width="318" height="126" rx="18" fill="#161D29" stroke="#273244"/>
    <text x="878" y="456" class="kicker">Now</text>
    <text x="878" y="494" class="tab">checkout-ux</text>
    <text x="878" y="526" class="copy">Refine the next UX decision.</text>

    <rect x="850" y="564" width="318" height="76" rx="18" fill="#161D29" stroke="#273244"/>
    <text x="878" y="600" class="kicker">Queue</text>
    <text x="878" y="626" class="mono">meetings -> comms-triage -> strategy</text>

    <rect x="850" y="658" width="318" height="68" rx="18" fill="#161D29" stroke="#273244"/>
    <text x="878" y="692" class="kicker">Continuity</text>
    <text x="878" y="718" class="copy">Every tab resumes from its own context file.</text>
  </g>
</svg>
