<svg xmlns="http://www.w3.org/2000/svg" width="1280" height="760" viewBox="0 0 1280 760" fill="none">
  <defs>
    <linearGradient id="bg" x1="0" y1="0" x2="1280" y2="760" gradientUnits="userSpaceOnUse">
      <stop stop-color="#0A0F16"/>
      <stop offset="1" stop-color="#101827"/>
    </linearGradient>
    <linearGradient id="left" x1="0" y1="0" x2="0" y2="1">
      <stop stop-color="#20131B"/>
      <stop offset="1" stop-color="#170F14"/>
    </linearGradient>
    <linearGradient id="right" x1="0" y1="0" x2="1" y2="1">
      <stop stop-color="#13233F"/>
      <stop offset="1" stop-color="#0F3F3C"/>
    </linearGradient>
    <filter id="shadow" x="-20%" y="-20%" width="140%" height="140%">
      <feDropShadow dx="0" dy="16" stdDeviation="20" flood-color="#000000" flood-opacity="0.35"/>
    </filter>
    <style>
      .title{font:700 42px Inter,Arial,sans-serif;fill:#F8FAFC}
      .subtitle{font:500 22px Inter,Arial,sans-serif;fill:#94A3B8}
      .kicker{font:600 15px Inter,Arial,sans-serif;fill:#93C5FD;letter-spacing:1.8px;text-transform:uppercase}
      .panel{font:700 32px Inter,Arial,sans-serif;fill:#F8FAFC}
      .copy{font:500 22px Inter,Arial,sans-serif;fill:#DBE4EF}
      .mini{font:500 19px Inter,Arial,sans-serif;fill:#AAB7C9}
      .mono{font:600 20px 'JetBrains Mono',monospace;fill:#BFDBFE}
    </style>
  </defs>

  <rect width="1280" height="760" rx="28" fill="url(#bg)"/>
  <circle cx="1120" cy="96" r="180" fill="#1D4ED8" fill-opacity="0.10"/>
  <circle cx="180" cy="680" r="220" fill="#7C3AED" fill-opacity="0.08"/>

  <text x="72" y="78" class="kicker">Comparison</text>
  <text x="72" y="126" class="title">Why the AI PM OS feels different from a chatbot</text>
  <text x="72" y="160" class="subtitle">The jump comes from environment design: separate threads, startup planning, and durable context.</text>

  <g filter="url(#shadow)">
    <rect x="72" y="214" width="520" height="470" rx="28" fill="url(#left)" stroke="#3B1D2A"/>
    <text x="108" y="274" class="panel">Single chat thread</text>
    <text x="108" y="312" class="copy">Helpful for one question. Fragile for a working day.</text>

    <rect x="108" y="352" width="448" height="92" rx="18" fill="#2A1B23" stroke="#4A2938"/>
    <text x="136" y="390" class="copy">Strategy, comms, docs, follow-up</text>
    <text x="136" y="420" class="mini">All mixed into one thread.</text>

    <rect x="108" y="470" width="448" height="92" rx="18" fill="#2A1B23" stroke="#4A2938"/>
    <text x="136" y="508" class="copy">Resume means rereading scrollback</text>
    <text x="136" y="538" class="mini">and hoping the model remembers.</text>

    <rect x="108" y="588" width="448" height="92" rx="18" fill="#2A1B23" stroke="#4A2938"/>
    <text x="136" y="626" class="copy">A long gap can break continuity</text>
    <text x="136" y="656" class="mini">and raise the cost to restart.</text>
  </g>

  <g filter="url(#shadow)">
    <rect x="636" y="214" width="572" height="470" rx="28" fill="url(#right)" stroke="#1E3A5F"/>
    <text x="672" y="274" class="panel">The AI PM OS</text>
    <text x="672" y="312" class="copy">A planner, multiple workspaces, and file-backed continuity.</text>

    <rect x="672" y="348" width="500" height="88" rx="18" fill="#10233F" stroke="#315A8D"/>
    <text x="704" y="386" class="panel" font-size="24">Chief of Staff</text>
    <text x="704" y="416" class="mini">The day starts with a planning pass, not a blank chat.</text>

    <rect x="672" y="462" width="154" height="118" rx="18" fill="#0F1A2A" stroke="#2A415F"/>
    <text x="696" y="502" class="copy">Thread A</text>
    <text x="696" y="536" class="mono">CONTEXT.md</text>

    <rect x="860" y="462" width="154" height="118" rx="18" fill="#0F1A2A" stroke="#2A415F"/>
    <text x="884" y="502" class="copy">Thread B</text>
    <text x="884" y="536" class="mono">CONTEXT.md</text>

    <rect x="1048" y="462" width="124" height="118" rx="18" fill="#0F1A2A" stroke="#2A415F"/>
    <text x="1070" y="502" class="copy">Routine</text>
    <text x="1078" y="536" class="mono">loop</text>

    <rect x="672" y="606" width="500" height="58" rx="16" fill="#0F1A2A" stroke="#2A415F"/>
    <text x="700" y="642" class="mono">queue.json -> now.json -> cmux -> resume</text>
  </g>
</svg>
