<svg xmlns="http://www.w3.org/2000/svg" width="1200" height="760" viewBox="0 0 1200 760" fill="none">
  <defs>
    <linearGradient id="bg" x1="0" y1="0" x2="1200" y2="760" gradientUnits="userSpaceOnUse">
      <stop stop-color="#0B0E13"/>
      <stop offset="1" stop-color="#101827"/>
    </linearGradient>
    <linearGradient id="panel" x1="0" y1="0" x2="0" y2="1">
      <stop stop-color="#171A22"/>
      <stop offset="1" stop-color="#10131A"/>
    </linearGradient>
    <linearGradient id="core" x1="0" y1="0" x2="1" y2="1">
      <stop stop-color="#1E3A8A"/>
      <stop offset="1" stop-color="#0F766E"/>
    </linearGradient>
    <filter id="shadow" x="-20%" y="-20%" width="140%" height="140%">
      <feDropShadow dx="0" dy="16" stdDeviation="20" flood-color="#000000" flood-opacity="0.35"/>
    </filter>
    <marker id="inputArrow" markerWidth="10" markerHeight="10" refX="8" refY="5" orient="auto">
      <path d="M0 0L10 5L0 10V0Z" fill="#34D399"/>
    </marker>
    <marker id="outputArrow" markerWidth="10" markerHeight="10" refX="8" refY="5" orient="auto">
      <path d="M0 0L10 5L0 10V0Z" fill="#60A5FA"/>
    </marker>
    <style>
      .title{font:700 42px Inter,Arial,sans-serif;fill:#F8FAFC}
      .subtitle{font:500 22px Inter,Arial,sans-serif;fill:#94A3B8}
      .kicker{font:600 15px Inter,Arial,sans-serif;fill:#93C5FD;letter-spacing:1.8px;text-transform:uppercase}
      .kicker-input{font:600 15px Inter,Arial,sans-serif;fill:#6EE7B7;letter-spacing:1.8px;text-transform:uppercase}
      .kicker-output{font:600 15px Inter,Arial,sans-serif;fill:#93C5FD;letter-spacing:1.8px;text-transform:uppercase}
      .card-title{font:700 30px Inter,Arial,sans-serif;fill:#F8FAFC}
      .card-copy{font:500 22px Inter,Arial,sans-serif;fill:#DBE4EF}
      .small-title{font:700 24px Inter,Arial,sans-serif;fill:#F8FAFC}
      .small-copy{font:500 20px Inter,Arial,sans-serif;fill:#B8C4D6}
      .mono{font:600 20px 'JetBrains Mono',monospace;fill:#BFDBFE}
      .mono-input{font:600 20px 'JetBrains Mono',monospace;fill:#A7F3D0}
      .mono-output{font:600 20px 'JetBrains Mono',monospace;fill:#BFDBFE}
    </style>
  </defs>

  <rect width="1200" height="760" rx="28" fill="url(#bg)"/>
  <circle cx="1030" cy="120" r="180" fill="#1D4ED8" fill-opacity="0.12"/>
  <circle cx="140" cy="660" r="220" fill="#0F766E" fill-opacity="0.10"/>

  <text x="72" y="78" class="kicker">Overview</text>
  <text x="72" y="126" class="title">From isolated skills to the AI PM OS</text>
  <text x="72" y="160" class="subtitle">A planner, durable context, and parallel workspaces turn useful prompts into a repeatable system.</text>
  <text x="72" y="200" class="kicker-input">Inputs Amp reads</text>
  <text x="836" y="200" class="kicker-output">Outputs the system opens</text>

  <g filter="url(#shadow)">
    <rect x="72" y="220" width="262" height="98" rx="20" fill="url(#panel)" stroke="#2A3342"/>
    <text x="104" y="260" class="small-title">Inbox triage</text>
    <text x="104" y="292" class="small-copy">Slack, Gmail, comments</text>

    <rect x="72" y="334" width="262" height="98" rx="20" fill="url(#panel)" stroke="#2A3342"/>
    <text x="104" y="374" class="small-title">PRD writing</text>
    <text x="104" y="406" class="small-copy">Notes, research, synthesis</text>

    <rect x="72" y="448" width="262" height="98" rx="20" fill="url(#panel)" stroke="#2A3342"/>
    <text x="104" y="488" class="small-title">Research</text>
    <text x="104" y="520" class="small-copy">Customers, market, docs</text>

    <rect x="72" y="562" width="262" height="98" rx="20" fill="url(#panel)" stroke="#2A3342"/>
    <text x="104" y="602" class="small-title">Follow-up queue</text>
    <text x="104" y="634" class="small-copy">Capture, rank, reconcile</text>
  </g>

  <g filter="url(#shadow)">
    <rect x="404" y="248" width="388" height="240" rx="30" fill="url(#core)"/>
    <text x="442" y="298" class="kicker">Planning layer</text>
    <text x="442" y="346" class="card-title">Chief of Staff</text>
    <text x="442" y="388" class="card-copy">Reads notes, routines, and open workstreams.</text>
    <text x="442" y="424" class="card-copy">Decides what deserves attention now.</text>
    <text x="442" y="462" class="mono-input">start-day</text>
    <text x="442" y="490" class="mono-output">today-plan.json</text>
  </g>

  <g filter="url(#shadow)">
    <rect x="848" y="220" width="282" height="120" rx="20" fill="url(#panel)" stroke="#2A3342"/>
    <text x="880" y="264" class="small-title">CMUX tabs</text>
    <text x="880" y="296" class="small-copy">command-center, meetings,</text>
    <text x="880" y="324" class="small-copy">comms, checkout-ux</text>

    <rect x="848" y="360" width="282" height="120" rx="20" fill="url(#panel)" stroke="#2A3342"/>
    <text x="880" y="404" class="small-title">Context files</text>
    <text x="880" y="436" class="small-copy">Every thread resumes from</text>
    <text x="880" y="464" class="mono">CONTEXT.md</text>

    <rect x="848" y="500" width="282" height="160" rx="20" fill="url(#panel)" stroke="#2A3342"/>
    <text x="880" y="544" class="small-title">State view</text>
    <text x="880" y="580" class="mono">queue.json</text>
    <text x="880" y="612" class="mono">now.json</text>
    <text x="880" y="644" class="small-copy">A quick view of what is live</text>
  </g>

  <g filter="url(#shadow)">
    <rect x="430" y="540" width="150" height="108" rx="18" fill="url(#panel)" stroke="#2A3342"/>
    <text x="458" y="582" class="small-title">Workstreams</text>
    <text x="458" y="614" class="small-copy">Finite threads</text>

    <rect x="614" y="540" width="150" height="108" rx="18" fill="url(#panel)" stroke="#2A3342"/>
    <text x="654" y="582" class="small-title">Routines</text>
    <text x="642" y="614" class="small-copy">Recurring loops</text>
  </g>

  <path d="M334 270C362 270 374 270 402 314" stroke="#34D399" stroke-width="4" marker-end="url(#inputArrow)"/>
  <path d="M334 384C366 384 382 382 402 358" stroke="#34D399" stroke-width="4" marker-end="url(#inputArrow)"/>
  <path d="M334 498C368 498 384 468 402 402" stroke="#34D399" stroke-width="4" marker-end="url(#inputArrow)"/>
  <path d="M334 612C370 612 388 546 402 438" stroke="#34D399" stroke-width="4" marker-end="url(#inputArrow)"/>

  <path d="M792 358C820 358 832 306 848 280" stroke="#60A5FA" stroke-width="4" marker-end="url(#outputArrow)"/>
  <path d="M792 358C820 358 832 396 848 420" stroke="#60A5FA" stroke-width="4" marker-end="url(#outputArrow)"/>
  <path d="M792 358C824 358 834 540 848 584" stroke="#60A5FA" stroke-width="4" marker-end="url(#outputArrow)"/>
  <path d="M598 488C598 518 504 522 504 540" stroke="#60A5FA" stroke-width="4" marker-end="url(#outputArrow)"/>
  <path d="M598 488C598 518 688 522 688 540" stroke="#60A5FA" stroke-width="4" marker-end="url(#outputArrow)"/>
</svg>
