<svg xmlns="http://www.w3.org/2000/svg" width="1200" height="760" viewBox="0 0 1200 760" fill="none">
  <defs>
    <linearGradient id="bg" x1="0" y1="0" x2="1200" y2="760" gradientUnits="userSpaceOnUse">
      <stop stop-color="#0B0E13"/>
      <stop offset="1" stop-color="#101827"/>
    </linearGradient>
    <linearGradient id="panel" x1="0" y1="0" x2="0" y2="1">
      <stop stop-color="#171A22"/>
      <stop offset="1" stop-color="#10131A"/>
    </linearGradient>
    <linearGradient id="core" x1="0" y1="0" x2="1" y2="1">
      <stop stop-color="#1E3A8A"/>
      <stop offset="1" stop-color="#0F766E"/>
    </linearGradient>
    <filter id="shadow" x="-20%" y="-20%" width="140%" height="140%">
      <feDropShadow dx="0" dy="16" stdDeviation="20" flood-color="#000000" flood-opacity="0.35"/>
    </filter>
    <marker id="inputArrow" markerWidth="8" markerHeight="8" refX="6.5" refY="4" orient="auto">
      <path d="M0 0L8 4L0 8V0Z" fill="#34D399"/>
    </marker>
    <marker id="outputArrow" markerWidth="8" markerHeight="8" refX="6.5" refY="4" orient="auto">
      <path d="M0 0L8 4L0 8V0Z" fill="#60A5FA"/>
    </marker>
    <style>
      .title{font:700 38px Inter,Arial,sans-serif;fill:#F8FAFC}
      .subtitle{font:500 18px Inter,Arial,sans-serif;fill:#94A3B8}
      .kicker{font:600 13px Inter,Arial,sans-serif;fill:#93C5FD;letter-spacing:1.8px;text-transform:uppercase}
      .kicker-input{font:600 13px Inter,Arial,sans-serif;fill:#6EE7B7;letter-spacing:1.8px;text-transform:uppercase}
      .kicker-output{font:600 13px Inter,Arial,sans-serif;fill:#93C5FD;letter-spacing:1.8px;text-transform:uppercase}
      .card-title{font:700 22px Inter,Arial,sans-serif;fill:#F8FAFC}
      .card-copy{font:500 14px Inter,Arial,sans-serif;fill:#CBD5E1}
      .small-title{font:700 19px Inter,Arial,sans-serif;fill:#F8FAFC}
      .small-copy{font:500 13px Inter,Arial,sans-serif;fill:#94A3B8}
      .mono{font:600 12px 'JetBrains Mono',monospace;fill:#BFDBFE}
      .mono-input{font:600 12px 'JetBrains Mono',monospace;fill:#A7F3D0}
      .mono-output{font:600 12px 'JetBrains Mono',monospace;fill:#BFDBFE}
    </style>
  </defs>

  <rect width="1200" height="760" rx="28" fill="url(#bg)"/>
  <circle cx="1030" cy="120" r="180" fill="#1D4ED8" fill-opacity="0.12"/>
  <circle cx="140" cy="660" r="220" fill="#0F766E" fill-opacity="0.10"/>

  <text x="72" y="78" class="kicker">Overview</text>
  <text x="72" y="126" class="title">From isolated skills to the AI PM OS</text>
  <text x="72" y="158" class="subtitle">A planner, durable context, and parallel workspaces turn helpful tools into an operating model.</text>
  <text x="72" y="196" class="kicker-input">Inputs Amp reads</text>
  <text x="840" y="196" class="kicker-output">Outputs opened in CMUX</text>

  <g filter="url(#shadow)">
    <rect x="72" y="214" width="252" height="92" rx="18" fill="url(#panel)" stroke="#2A3342"/>
    <text x="102" y="252" class="small-title">Inbox triage</text>
    <text x="102" y="280" class="small-copy">Slack, Gmail, comments</text>

    <rect x="72" y="326" width="252" height="92" rx="18" fill="url(#panel)" stroke="#2A3342"/>
    <text x="102" y="364" class="small-title">PRD writing</text>
    <text x="102" y="392" class="small-copy">Notes, research, synthesis</text>

    <rect x="72" y="438" width="252" height="92" rx="18" fill="url(#panel)" stroke="#2A3342"/>
    <text x="102" y="476" class="small-title">Research</text>
    <text x="102" y="504" class="small-copy">Customer, market, docs</text>

    <rect x="72" y="550" width="252" height="92" rx="18" fill="url(#panel)" stroke="#2A3342"/>
    <text x="102" y="588" class="small-title">To-dos and follow-up</text>
    <text x="102" y="616" class="small-copy">Capture, queue, reconcile</text>
  </g>

  <g filter="url(#shadow)">
    <rect x="396" y="238" width="404" height="272" rx="28" fill="url(#core)"/>
    <text x="450" y="304" class="kicker" fill="#DBEAFE">Planning layer</text>
    <text x="450" y="348" class="card-title">Chief of Staff</text>
    <text x="450" y="382" class="card-copy">Reads notes, routines,</text>
    <text x="450" y="402" class="card-copy">and active threads.</text>
    <text x="450" y="430" class="card-copy">Decides what matters</text>
    <text x="450" y="450" class="card-copy">right now.</text>
    <text x="450" y="476" class="mono-input">Input: start-day</text>
    <text x="450" y="494" class="mono-output">Output: today-plan.json</text>
  </g>

  <g filter="url(#shadow)">
    <rect x="840" y="214" width="290" height="126" rx="18" fill="url(#panel)" stroke="#2A3342"/>
    <text x="870" y="258" class="small-title">CMUX workspaces</text>
    <text x="870" y="286" class="small-copy">command-center</text>
    <text x="870" y="304" class="small-copy">meetings, comms-triage</text>
    <text x="870" y="322" class="small-copy">checkout-ux</text>

    <rect x="840" y="352" width="290" height="118" rx="18" fill="url(#panel)" stroke="#2A3342"/>
    <text x="870" y="396" class="small-title">Durable context</text>
    <text x="870" y="424" class="small-copy">Each thread resumes from</text>
    <text x="870" y="446" class="mono">CONTEXT.md</text>

    <rect x="840" y="490" width="290" height="160" rx="18" fill="url(#panel)" stroke="#2A3342"/>
    <text x="870" y="534" class="small-title">Derived state</text>
    <text x="870" y="562" class="mono">queue.json</text>
    <text x="870" y="590" class="mono">now.json</text>
    <text x="870" y="618" class="small-copy">Live state plus</text>
    <text x="870" y="636" class="small-copy">the next move.</text>
  </g>

  <g filter="url(#shadow)">
    <rect x="414" y="526" width="160" height="128" rx="18" fill="url(#panel)" stroke="#2A3342"/>
    <text x="444" y="558" class="small-title">Workstreams</text>
    <text x="444" y="586" class="small-copy">Finite threads</text>
    <text x="444" y="608" class="small-copy">with outcomes.</text>

    <rect x="594" y="526" width="160" height="128" rx="18" fill="url(#panel)" stroke="#2A3342"/>
    <text x="624" y="558" class="small-title">Routines</text>
    <text x="624" y="586" class="small-copy">Recurring loops</text>
    <text x="624" y="608" class="small-copy">that never end.</text>
  </g>

  <path d="M324 260C356 260 370 260 404 310" stroke="#34D399" stroke-width="3" marker-end="url(#inputArrow)"/>
  <path d="M324 372C364 372 382 372 404 350" stroke="#34D399" stroke-width="3" marker-end="url(#inputArrow)"/>
  <path d="M324 484C364 484 386 454 404 390" stroke="#34D399" stroke-width="3" marker-end="url(#inputArrow)"/>
  <path d="M324 596C370 596 386 530 404 426" stroke="#34D399" stroke-width="3" marker-end="url(#inputArrow)"/>

  <path d="M792 364C818 364 826 308 840 278" stroke="#60A5FA" stroke-width="3" marker-end="url(#outputArrow)"/>
  <path d="M792 364C818 364 828 396 840 414" stroke="#60A5FA" stroke-width="3" marker-end="url(#outputArrow)"/>
  <path d="M792 364C824 364 828 532 840 566" stroke="#60A5FA" stroke-width="3" marker-end="url(#outputArrow)"/>
  <path d="M598 510C598 518 494 520 494 526" stroke="#60A5FA" stroke-width="3" marker-end="url(#outputArrow)"/>
  <path d="M598 510C598 518 674 520 674 526" stroke="#60A5FA" stroke-width="3" marker-end="url(#outputArrow)"/>
</svg>
