<svg xmlns="http://www.w3.org/2000/svg" width="1280" height="760" viewBox="0 0 1280 760" fill="none">
  <defs>
    <linearGradient id="bg" x1="0" y1="0" x2="1280" y2="760" gradientUnits="userSpaceOnUse">
      <stop stop-color="#0A0F16"/>
      <stop offset="1" stop-color="#101827"/>
    </linearGradient>
    <linearGradient id="box" x1="0" y1="0" x2="0" y2="1">
      <stop stop-color="#171F2B"/>
      <stop offset="1" stop-color="#111827"/>
    </linearGradient>
    <linearGradient id="accent" x1="0" y1="0" x2="1" y2="1">
      <stop stop-color="#2563EB"/>
      <stop offset="1" stop-color="#14B8A6"/>
    </linearGradient>
    <filter id="shadow" x="-20%" y="-20%" width="140%" height="140%">
      <feDropShadow dx="0" dy="14" stdDeviation="18" flood-color="#000000" flood-opacity="0.35"/>
    </filter>
    <marker id="arrow" markerWidth="10" markerHeight="10" refX="8" refY="5" orient="auto">
      <path d="M0 0L10 5L0 10V0Z" fill="#60A5FA"/>
    </marker>
    <style>
      .title{font:700 42px Inter,Arial,sans-serif;fill:#F8FAFC}
      .subtitle{font:500 22px Inter,Arial,sans-serif;fill:#94A3B8}
      .kicker{font:600 15px Inter,Arial,sans-serif;fill:#93C5FD;letter-spacing:1.8px;text-transform:uppercase}
      .step{font:700 28px Inter,Arial,sans-serif;fill:#F8FAFC}
      .copy{font:500 20px Inter,Arial,sans-serif;fill:#DBE4EF}
      .mono{font:600 20px 'JetBrains Mono',monospace;fill:#BFDBFE}
      .mini{font:500 18px Inter,Arial,sans-serif;fill:#AAB7C9}
    </style>
  </defs>

  <rect width="1280" height="760" rx="28" fill="url(#bg)"/>
  <circle cx="1180" cy="88" r="180" fill="#1D4ED8" fill-opacity="0.10"/>
  <circle cx="160" cy="700" r="220" fill="#0F766E" fill-opacity="0.09"/>

  <text x="72" y="78" class="kicker">Workflow</text>
  <text x="72" y="126" class="title">How the AI PM OS starts the day</text>
  <text x="72" y="160" class="subtitle">The public flow is intentionally simple: plan first, derive state, then open the right sessions.</text>

  <g filter="url(#shadow)">
    <rect x="76" y="236" width="178" height="118" rx="22" fill="url(#accent)"/>
    <text x="108" y="284" class="kicker">Entry</text>
    <text x="108" y="324" class="step">start-day</text>
    <text x="108" y="350" class="mini">one command</text>

    <rect x="304" y="236" width="226" height="118" rx="22" fill="url(#box)" stroke="#2A3342"/>
    <text x="336" y="284" class="kicker">Planner</text>
    <text x="336" y="322" class="step">command-center</text>
    <text x="336" y="350" class="mini">Chief of Staff reviews the day.</text>

    <rect x="580" y="236" width="236" height="118" rx="22" fill="url(#box)" stroke="#2A3342"/>
    <text x="612" y="284" class="kicker">Plan file</text>
    <text x="612" y="324" class="mono">today-plan.json</text>
    <text x="612" y="350" class="mini">Selected threads and prompts.</text>

    <rect x="850" y="236" width="172" height="118" rx="22" fill="url(#box)" stroke="#2A3342"/>
    <text x="882" y="284" class="kicker">State</text>
    <text x="882" y="320" class="mono">queue.json</text>
    <text x="882" y="348" class="mono">now.json</text>

    <rect x="1072" y="236" width="132" height="118" rx="22" fill="url(#box)" stroke="#2A3342"/>
    <text x="1100" y="284" class="kicker">Surface</text>
    <text x="1100" y="322" class="step">cmux</text>
    <text x="1092" y="350" class="mini">parallel tabs</text>
  </g>

  <path d="M254 295H304" stroke="#60A5FA" stroke-width="4" marker-end="url(#arrow)"/>
  <path d="M530 295H580" stroke="#60A5FA" stroke-width="4" marker-end="url(#arrow)"/>
  <path d="M816 295H850" stroke="#60A5FA" stroke-width="4" marker-end="url(#arrow)"/>
  <path d="M1022 295H1072" stroke="#60A5FA" stroke-width="4" marker-end="url(#arrow)"/>

  <text x="76" y="444" class="kicker">Opened from the plan</text>
  <g filter="url(#shadow)">
    <rect x="76" y="468" width="356" height="188" rx="22" fill="url(#box)" stroke="#2A3342"/>
    <text x="108" y="514" class="step">checkout-ux</text>
    <text x="108" y="548" class="mono">workstreams/checkout-ux/CONTEXT.md</text>
    <text x="108" y="590" class="copy">Refine the next UX decision.</text>
    <text x="108" y="620" class="mini">Prep the review thread.</text>

    <rect x="462" y="468" width="356" height="188" rx="22" fill="url(#box)" stroke="#2A3342"/>
    <text x="494" y="514" class="step">meetings</text>
    <text x="494" y="548" class="mono">routines/meetings/CONTEXT.md</text>
    <text x="494" y="590" class="copy">Build the next brief.</text>
    <text x="494" y="620" class="mini">Gather open questions.</text>

    <rect x="848" y="468" width="356" height="188" rx="22" fill="url(#box)" stroke="#2A3342"/>
    <text x="880" y="514" class="step">comms-triage</text>
    <text x="880" y="548" class="mono">routines/comms-triage/CONTEXT.md</text>
    <text x="880" y="590" class="copy">Triage messages and draft replies.</text>
    <text x="880" y="620" class="mini">Keep the queue current.</text>
  </g>

  <path d="M676 354V420" stroke="#34D399" stroke-width="4" marker-end="url(#arrow)"/>
  <path d="M1128 354V420" stroke="#34D399" stroke-width="4" marker-end="url(#arrow)"/>
  <path d="M920 354C920 394 660 404 400 454" stroke="#34D399" stroke-width="4" marker-end="url(#arrow)"/>
</svg>
