<svg xmlns="http://www.w3.org/2000/svg" width="1280" height="760" viewBox="0 0 1280 760" fill="none">
  <defs>
    <linearGradient id="bg" x1="0" y1="0" x2="1280" y2="760" gradientUnits="userSpaceOnUse">
      <stop stop-color="#0A0F16"/>
      <stop offset="1" stop-color="#101827"/>
    </linearGradient>
    <linearGradient id="left" x1="0" y1="0" x2="0" y2="1">
      <stop stop-color="#20131B"/>
      <stop offset="1" stop-color="#170F14"/>
    </linearGradient>
    <linearGradient id="right" x1="0" y1="0" x2="1" y2="1">
      <stop stop-color="#13233F"/>
      <stop offset="1" stop-color="#0F3F3C"/>
    </linearGradient>
    <filter id="shadow" x="-20%" y="-20%" width="140%" height="140%">
      <feDropShadow dx="0" dy="16" stdDeviation="20" flood-color="#000000" flood-opacity="0.35"/>
    </filter>
    <style>
      .title{font:700 38px Inter,Arial,sans-serif;fill:#F8FAFC}
      .subtitle{font:500 18px Inter,Arial,sans-serif;fill:#94A3B8}
      .kicker{font:600 13px Inter,Arial,sans-serif;fill:#93C5FD;letter-spacing:1.8px;text-transform:uppercase}
      .panel{font:700 28px Inter,Arial,sans-serif;fill:#F8FAFC}
      .copy{font:500 17px Inter,Arial,sans-serif;fill:#CBD5E1}
      .mini{font:500 15px Inter,Arial,sans-serif;fill:#94A3B8}
      .mono{font:600 14px 'JetBrains Mono',monospace;fill:#BFDBFE}
    </style>
  </defs>

  <rect width="1280" height="760" rx="28" fill="url(#bg)"/>
  <circle cx="1120" cy="96" r="180" fill="#1D4ED8" fill-opacity="0.10"/>
  <circle cx="180" cy="680" r="220" fill="#7C3AED" fill-opacity="0.08"/>

  <text x="72" y="78" class="kicker">Comparison</text>
  <text x="72" y="126" class="title">Why the AI PM OS feels different from a chatbot</text>
  <text x="72" y="158" class="subtitle">The leap comes from environment design: separate threads, startup planning, and durable context.</text>

  <g filter="url(#shadow)">
    <rect x="72" y="214" width="520" height="470" rx="28" fill="url(#left)" stroke="#3B1D2A"/>
    <text x="108" y="274" class="panel">Single chat thread</text>
    <text x="108" y="308" class="copy">Helpful for a question. Fragile for an operating day.</text>

    <rect x="108" y="346" width="448" height="84" rx="16" fill="#2A1B23" stroke="#4A2938"/>
    <text x="134" y="384" class="copy">One thread mixes strategy, comms, docs, and follow-up.</text>

    <rect x="108" y="448" width="448" height="84" rx="16" fill="#2A1B23" stroke="#4A2938"/>
    <text x="134" y="486" class="copy">Re-entry means reloading context from memory and scrollback.</text>

    <rect x="108" y="550" width="448" height="84" rx="16" fill="#2A1B23" stroke="#4A2938"/>
    <text x="134" y="588" class="copy">A crash or long gap can break the thread and raise the cost to resume.</text>
  </g>

  <g filter="url(#shadow)">
    <rect x="636" y="214" width="572" height="470" rx="28" fill="url(#right)" stroke="#1E3A5F"/>
    <text x="672" y="274" class="panel">The AI PM OS</text>
    <text x="672" y="308" class="copy">A planner, multiple workspaces, and file-backed continuity.</text>

    <rect x="672" y="344" width="500" height="86" rx="18" fill="#10233F" stroke="#315A8D"/>
    <text x="702" y="380" class="panel" font-size="22">Chief of Staff</text>
    <text x="702" y="406" class="mini">The day opens with a planning pass, not a blank thread.</text>

    <rect x="672" y="454" width="154" height="118" rx="18" fill="#0F1A2A" stroke="#2A415F"/>
    <text x="698" y="494" class="copy">Workstream A</text>
    <text x="698" y="520" class="mono">CONTEXT.md</text>

    <rect x="862" y="454" width="154" height="118" rx="18" fill="#0F1A2A" stroke="#2A415F"/>
    <text x="888" y="494" class="copy">Workstream B</text>
    <text x="888" y="520" class="mono">CONTEXT.md</text>

    <rect x="1052" y="454" width="120" height="118" rx="18" fill="#0F1A2A" stroke="#2A415F"/>
    <text x="1076" y="494" class="copy">Routine</text>
    <text x="1076" y="520" class="mono">loop</text>

    <rect x="672" y="596" width="500" height="56" rx="16" fill="#0F1A2A" stroke="#2A415F"/>
    <text x="700" y="630" class="mono">queue.json -> now.json -> cmux workspaces -> resume</text>
  </g>
</svg>
